<?xml version="1.0" standalone="no"?>
<!DOCTYPE svg PUBLIC "-//W3C//DTD SVG 20010904//EN"
 "http://www.w3.org/TR/2001/REC-SVG-20010904/DTD/svg10.dtd">
<svg version="1.0" xmlns="http://www.w3.org/2000/svg"
 width="225.000000pt" height="225.000000pt" viewBox="0 0 225.000000 225.000000"
 preserveAspectRatio="xMidYMid meet">
<metadata>
Created by potrace 1.16, written by Peter Selinger 2001-2019
</metadata>
<g transform="translate(0.000000,225.000000) scale(0.100000,-0.100000)"
fill="#000000" stroke="none">
<path d="M1070 1782 c-19 -9 -91 -65 -160 -123 -69 -58 -186 -156 -260 -218
-74 -62 -152 -129 -172 -148 -46 -41 -50 -75 -13 -99 35 -23 50 -15 171 88
418 354 475 399 497 392 22 -7 47 -27 386 -312 107 -90 205 -169 217 -174 18
-8 29 -7 49 6 37 24 33 60 -12 101 -110 96 -561 470 -587 486 -39 24 -72 24
-116 1z"/>
<path d="M1452 1788 c-7 -7 -12 -35 -12 -64 0 -56 -7 -48 143 -173 16 -13 17
-7 17 102 0 138 -5 147 -84 147 -28 0 -57 -5 -64 -12z"/>
<path d="M914 1391 c-105 -87 -209 -176 -232 -198 l-42 -40 0 -329 c0 -282 2
-333 16 -352 14 -21 22 -22 158 -22 97 0 146 4 154 12 8 8 12 67 12 198 0 241
-7 230 145 230 152 0 145 12 145 -232 0 -175 1 -188 19 -198 11 -5 80 -10 155
-10 128 0 136 1 150 22 14 19 16 70 16 350 l0 328 -32 34 c-70 73 -432 366
-453 366 -13 0 -97 -63 -211 -159z"/>
</g>
</svg>
