<?xml version="1.0" encoding="UTF-8" standalone="no"?>
<svg
   version="1.1"
   x="0px"
   y="0px"
   viewBox="0 0 100 125"
   style="enable-background:new 0 0 100 100;"
   xml:space="preserve"
   id="svg67"
   sodipodi:docname="noun_Arrow_in_circle_851224.svg"
   inkscape:version="1.1 (c4e8f9e, 2021-05-24)"
   xmlns:inkscape="http://www.inkscape.org/namespaces/inkscape"
   xmlns:sodipodi="http://sodipodi.sourceforge.net/DTD/sodipodi-0.dtd"
   xmlns="http://www.w3.org/2000/svg"
   xmlns:svg="http://www.w3.org/2000/svg"><defs
     id="defs71" /><sodipodi:namedview
     id="namedview69"
     pagecolor="#ffffff"
     bordercolor="#666666"
     borderopacity="1.0"
     inkscape:pageshadow="2"
     inkscape:pageopacity="0.0"
     inkscape:pagecheckerboard="0"
     showgrid="false"
     inkscape:zoom="4.48"
     inkscape:cx="58.035714"
     inkscape:cy="25.446429"
     inkscape:window-width="1323"
     inkscape:window-height="786"
     inkscape:window-x="0"
     inkscape:window-y="23"
     inkscape:window-maximized="0"
     inkscape:current-layer="svg67" /><g
     id="g61"><path
       d="M50,17c-18.2,0-33,14.8-33,33s14.8,33,33,33s33-14.8,33-33S68.2,17,50,17z M50,80c-16.5,0-30-13.5-30-30s13.5-30,30-30   s30,13.5,30,30S66.5,80,50,80z"
       id="path57" /><path
       d="M67,48.5H36.7l14.9-14.4c0.6-0.6,0.6-1.5,0-2.1c-0.6-0.6-1.5-0.6-2.1,0L33.1,47.8c-1.2,1.2-1.2,3.1,0,4.3l16.4,15.9   c0.3,0.3,0.7,0.4,1,0.4c0.4,0,0.8-0.2,1.2-0.5c0.5-0.6,0.4-1.6-0.2-2.1L36.7,51.5H67c0.8,0,1.5-0.7,1.5-1.5S67.8,48.5,67,48.5z"
       id="path59" /></g><path
     id="text63"
     d="m 44.912109,111.48633 c 0.01537,0.0282 0.02914,0.0571 0.04297,0.0859 0.03586,-0.0116 0.07158,-0.0236 0.107422,-0.0352 -0.05128,-0.0172 -0.0991,-0.0336 -0.150391,-0.0508 z m -3.267578,1.59961 c -0.02059,0.0117 -0.04082,0.0237 -0.0625,0.0352 0.02017,0.0157 0.03687,0.033 0.05664,0.0488 0.0019,10e-4 0.004,0.003 0.0059,0.004 0.02574,-0.0107 0.06753,-0.0314 0.0918,-0.041 -0.0309,-0.0159 -0.06089,-0.031 -0.0918,-0.0469 z" /></svg>
